<?xml version="1.0" encoding="utf-8" standalone="no"?>
<!DOCTYPE svg PUBLIC "-//W3C//DTD SVG 1.1//EN"
  "http://www.w3.org/Graphics/SVG/1.1/DTD/svg11.dtd">
<svg xmlns:xlink="http://www.w3.org/1999/xlink" width="460.8pt" height="345.6pt" viewBox="0 0 460.8 345.6" xmlns="http://www.w3.org/2000/svg" version="1.1">
 <metadata>
  <rdf:RDF xmlns:dc="http://purl.org/dc/elements/1.1/" xmlns:cc="http://creativecommons.org/ns#" xmlns:rdf="http://www.w3.org/1999/02/22-rdf-syntax-ns#">
   <cc:Work>
    <dc:type rdf:resource="http://purl.org/dc/dcmitype/StillImage"/>
    <dc:date>2023-03-10T19:00:29.820466</dc:date>
    <dc:format>image/svg+xml</dc:format>
    <dc:creator>
     <cc:Agent>
      <dc:title>Matplotlib v3.7.0, https://matplotlib.org/</dc:title>
     </cc:Agent>
    </dc:creator>
   </cc:Work>
  </rdf:RDF>
 </metadata>
 <defs>
  <style type="text/css">*{stroke-linejoin: round; stroke-linecap: butt}</style>
 </defs>
 <g id="figure_1">
  <g id="patch_1">
   <path d="M 0 345.6 
L 460.8 345.6 
L 460.8 0 
L 0 0 
z
" style="fill: #ffffff"/>
  </g>
  <g id="axes_1">
   <g id="patch_2">
    <path d="M 57.6 307.584 
L 414.72 307.584 
L 414.72 41.472 
L 57.6 41.472 
z
" style="fill: #ffffff"/>
   </g>
   <g id="PathCollection_1">
    <defs>
     <path id="mb56ce8a73a" d="M 0 3 
C 0.795609 3 1.55874 2.683901 2.12132 2.12132 
C 2.683901 1.55874 3 0.795609 3 0 
C 3 -0.795609 2.683901 -1.55874 2.12132 -2.12132 
C 1.55874 -2.683901 0.795609 -3 0 -3 
C -0.795609 -3 -1.55874 -2.683901 -2.12132 -2.12132 
C -2.683901 -1.55874 -3 -0.795609 -3 0 
C -3 0.795609 -2.683901 1.55874 -2.12132 2.12132 
C -1.55874 2.683901 -0.795609 3 0 3 
z
" style="stroke: #1f77b4"/>
    </defs>
    <g clip-path="url(#padcc20fcdf)">
     <use xlink:href="#mb56ce8a73a" x="266.509292" y="144.539602" style="fill: #1f77b4; stroke: #1f77b4"/>
     <use xlink:href="#mb56ce8a73a" x="200.912702" y="239.354574" style="fill: #1f77b4; stroke: #1f77b4"/>
     <use xlink:href="#mb56ce8a73a" x="289.217263" y="216.349567" style="fill: #1f77b4; stroke: #1f77b4"/>
     <use xlink:href="#mb56ce8a73a" x="240.822073" y="150.406457" style="fill: #1f77b4; stroke: #1f77b4"/>
     <use xlink:href="#mb56ce8a73a" x="173.237223" y="127.017706" style="fill: #1f77b4; stroke: #1f77b4"/>
     <use xlink:href="#mb56ce8a73a" x="290.292567" y="195.229537" style="fill: #1f77b4; stroke: #1f77b4"/>
     <use xlink:href="#mb56ce8a73a" x="181.094446" y="200.788298" style="fill: #1f77b4; stroke: #1f77b4"/>
     <use xlink:href="#mb56ce8a73a" x="275.383092" y="154.029157" style="fill: #1f77b4; stroke: #1f77b4"/>
     <use xlink:href="#mb56ce8a73a" x="230.094899" y="237.320391" style="fill: #1f77b4; stroke: #1f77b4"/>
     <use xlink:href="#mb56ce8a73a" x="203.463737" y="163.573285" style="fill: #1f77b4; stroke: #1f77b4"/>
     <use xlink:href="#mb56ce8a73a" x="290.345719" y="129.509618" style="fill: #1f77b4; stroke: #1f77b4"/>
     <use xlink:href="#mb56ce8a73a" x="186.12795" y="199.460869" style="fill: #1f77b4; stroke: #1f77b4"/>
     <use xlink:href="#mb56ce8a73a" x="186.856387" y="158.563768" style="fill: #1f77b4; stroke: #1f77b4"/>
     <use xlink:href="#mb56ce8a73a" x="258.608242" y="231.853093" style="fill: #1f77b4; stroke: #1f77b4"/>
     <use xlink:href="#mb56ce8a73a" x="296.366612" y="158.652875" style="fill: #1f77b4; stroke: #1f77b4"/>
     <use xlink:href="#mb56ce8a73a" x="297.980602" y="240.611413" style="fill: #1f77b4; stroke: #1f77b4"/>
     <use xlink:href="#mb56ce8a73a" x="173.806626" y="222.110134" style="fill: #1f77b4; stroke: #1f77b4"/>
     <use xlink:href="#mb56ce8a73a" x="324.214171" y="130.002025" style="fill: #1f77b4; stroke: #1f77b4"/>
     <use xlink:href="#mb56ce8a73a" x="215.34653" y="226.818613" style="fill: #1f77b4; stroke: #1f77b4"/>
     <use xlink:href="#mb56ce8a73a" x="229.611225" y="167.874276" style="fill: #1f77b4; stroke: #1f77b4"/>
     <use xlink:href="#mb56ce8a73a" x="206.584377" y="145.080492" style="fill: #1f77b4; stroke: #1f77b4"/>
     <use xlink:href="#mb56ce8a73a" x="243.373103" y="150.793964" style="fill: #1f77b4; stroke: #1f77b4"/>
     <use xlink:href="#mb56ce8a73a" x="211.001282" y="225.641453" style="fill: #1f77b4; stroke: #1f77b4"/>
     <use xlink:href="#mb56ce8a73a" x="321.155471" y="147.55144" style="fill: #1f77b4; stroke: #1f77b4"/>
     <use xlink:href="#mb56ce8a73a" x="223.320392" y="295.488" style="fill: #1f77b4; stroke: #1f77b4"/>
     <use xlink:href="#mb56ce8a73a" x="179.711722" y="141.35822" style="fill: #1f77b4; stroke: #1f77b4"/>
     <use xlink:href="#mb56ce8a73a" x="230.220632" y="149.647433" style="fill: #1f77b4; stroke: #1f77b4"/>
     <use xlink:href="#mb56ce8a73a" x="213.972106" y="212.608921" style="fill: #1f77b4; stroke: #1f77b4"/>
     <use xlink:href="#mb56ce8a73a" x="231.007368" y="196.367515" style="fill: #1f77b4; stroke: #1f77b4"/>
     <use xlink:href="#mb56ce8a73a" x="398.487273" y="152.192657" style="fill: #1f77b4; stroke: #1f77b4"/>
     <use xlink:href="#mb56ce8a73a" x="244.509235" y="220.900197" style="fill: #1f77b4; stroke: #1f77b4"/>
     <use xlink:href="#mb56ce8a73a" x="275.26833" y="176.588623" style="fill: #1f77b4; stroke: #1f77b4"/>
     <use xlink:href="#mb56ce8a73a" x="259.984272" y="150.268673" style="fill: #1f77b4; stroke: #1f77b4"/>
     <use xlink:href="#mb56ce8a73a" x="346.521618" y="188.81044" style="fill: #1f77b4; stroke: #1f77b4"/>
     <use xlink:href="#mb56ce8a73a" x="228.576675" y="149.473724" style="fill: #1f77b4; stroke: #1f77b4"/>
     <use xlink:href="#mb56ce8a73a" x="268.890603" y="210.845203" style="fill: #1f77b4; stroke: #1f77b4"/>
     <use xlink:href="#mb56ce8a73a" x="180.681057" y="225.85368" style="fill: #1f77b4; stroke: #1f77b4"/>
     <use xlink:href="#mb56ce8a73a" x="140.619584" y="176.442739" style="fill: #1f77b4; stroke: #1f77b4"/>
     <use xlink:href="#mb56ce8a73a" x="204.169408" y="166.50065" style="fill: #1f77b4; stroke: #1f77b4"/>
     <use xlink:href="#mb56ce8a73a" x="229.649038" y="144.952508" style="fill: #1f77b4; stroke: #1f77b4"/>
     <use xlink:href="#mb56ce8a73a" x="190.439373" y="186.117889" style="fill: #1f77b4; stroke: #1f77b4"/>
     <use xlink:href="#mb56ce8a73a" x="313.364129" y="159.220342" style="fill: #1f77b4; stroke: #1f77b4"/>
     <use xlink:href="#mb56ce8a73a" x="208.024357" y="198.601341" style="fill: #1f77b4; stroke: #1f77b4"/>
     <use xlink:href="#mb56ce8a73a" x="161.62155" y="192.979443" style="fill: #1f77b4; stroke: #1f77b4"/>
     <use xlink:href="#mb56ce8a73a" x="192.15765" y="148.658476" style="fill: #1f77b4; stroke: #1f77b4"/>
     <use xlink:href="#mb56ce8a73a" x="214.722619" y="195.944598" style="fill: #1f77b4; stroke: #1f77b4"/>
     <use xlink:href="#mb56ce8a73a" x="274.774189" y="164.233058" style="fill: #1f77b4; stroke: #1f77b4"/>
     <use xlink:href="#mb56ce8a73a" x="275.510519" y="151.298347" style="fill: #1f77b4; stroke: #1f77b4"/>
     <use xlink:href="#mb56ce8a73a" x="321.971115" y="190.862391" style="fill: #1f77b4; stroke: #1f77b4"/>
     <use xlink:href="#mb56ce8a73a" x="200.701231" y="194.155397" style="fill: #1f77b4; stroke: #1f77b4"/>
     <use xlink:href="#mb56ce8a73a" x="326.695676" y="163.708841" style="fill: #1f77b4; stroke: #1f77b4"/>
     <use xlink:href="#mb56ce8a73a" x="224.143931" y="189.678757" style="fill: #1f77b4; stroke: #1f77b4"/>
     <use xlink:href="#mb56ce8a73a" x="299.417372" y="229.194386" style="fill: #1f77b4; stroke: #1f77b4"/>
     <use xlink:href="#mb56ce8a73a" x="264.681437" y="124.522642" style="fill: #1f77b4; stroke: #1f77b4"/>
     <use xlink:href="#mb56ce8a73a" x="73.832727" y="198.121259" style="fill: #1f77b4; stroke: #1f77b4"/>
     <use xlink:href="#mb56ce8a73a" x="277.274986" y="156.244057" style="fill: #1f77b4; stroke: #1f77b4"/>
     <use xlink:href="#mb56ce8a73a" x="253.47294" y="149.537934" style="fill: #1f77b4; stroke: #1f77b4"/>
     <use xlink:href="#mb56ce8a73a" x="353.301105" y="239.205348" style="fill: #1f77b4; stroke: #1f77b4"/>
     <use xlink:href="#mb56ce8a73a" x="219.71042" y="197.697898" style="fill: #1f77b4; stroke: #1f77b4"/>
     <use xlink:href="#mb56ce8a73a" x="316.52615" y="138.553095" style="fill: #1f77b4; stroke: #1f77b4"/>
     <use xlink:href="#mb56ce8a73a" x="290.419307" y="178.14381" style="fill: #1f77b4; stroke: #1f77b4"/>
     <use xlink:href="#mb56ce8a73a" x="256.88811" y="194.237507" style="fill: #1f77b4; stroke: #1f77b4"/>
     <use xlink:href="#mb56ce8a73a" x="207.851029" y="185.923706" style="fill: #1f77b4; stroke: #1f77b4"/>
     <use xlink:href="#mb56ce8a73a" x="268.004573" y="239.856978" style="fill: #1f77b4; stroke: #1f77b4"/>
     <use xlink:href="#mb56ce8a73a" x="203.010157" y="148.203461" style="fill: #1f77b4; stroke: #1f77b4"/>
     <use xlink:href="#mb56ce8a73a" x="290.752109" y="158.890358" style="fill: #1f77b4; stroke: #1f77b4"/>
     <use xlink:href="#mb56ce8a73a" x="215.422941" y="173.067982" style="fill: #1f77b4; stroke: #1f77b4"/>
     <use xlink:href="#mb56ce8a73a" x="231.296774" y="197.534667" style="fill: #1f77b4; stroke: #1f77b4"/>
     <use xlink:href="#mb56ce8a73a" x="240.054588" y="204.756527" style="fill: #1f77b4; stroke: #1f77b4"/>
     <use xlink:href="#mb56ce8a73a" x="236.38286" y="164.927537" style="fill: #1f77b4; stroke: #1f77b4"/>
     <use xlink:href="#mb56ce8a73a" x="280.148101" y="154.232806" style="fill: #1f77b4; stroke: #1f77b4"/>
     <use xlink:href="#mb56ce8a73a" x="165.874383" y="248.713805" style="fill: #1f77b4; stroke: #1f77b4"/>
     <use xlink:href="#mb56ce8a73a" x="356.958285" y="186.03503" style="fill: #1f77b4; stroke: #1f77b4"/>
     <use xlink:href="#mb56ce8a73a" x="217.896722" y="159.20928" style="fill: #1f77b4; stroke: #1f77b4"/>
     <use xlink:href="#mb56ce8a73a" x="256.180733" y="230.538547" style="fill: #1f77b4; stroke: #1f77b4"/>
     <use xlink:href="#mb56ce8a73a" x="152.664672" y="112.556554" style="fill: #1f77b4; stroke: #1f77b4"/>
     <use xlink:href="#mb56ce8a73a" x="244.614197" y="189.110154" style="fill: #1f77b4; stroke: #1f77b4"/>
     <use xlink:href="#mb56ce8a73a" x="138.593992" y="179.214163" style="fill: #1f77b4; stroke: #1f77b4"/>
     <use xlink:href="#mb56ce8a73a" x="134.864131" y="226.330474" style="fill: #1f77b4; stroke: #1f77b4"/>
     <use xlink:href="#mb56ce8a73a" x="232.39816" y="117.972742" style="fill: #1f77b4; stroke: #1f77b4"/>
     <use xlink:href="#mb56ce8a73a" x="233.786106" y="178.385805" style="fill: #1f77b4; stroke: #1f77b4"/>
     <use xlink:href="#mb56ce8a73a" x="330.039765" y="135.881333" style="fill: #1f77b4; stroke: #1f77b4"/>
     <use xlink:href="#mb56ce8a73a" x="324.791537" y="175.012703" style="fill: #1f77b4; stroke: #1f77b4"/>
     <use xlink:href="#mb56ce8a73a" x="112.788318" y="195.065698" style="fill: #1f77b4; stroke: #1f77b4"/>
     <use xlink:href="#mb56ce8a73a" x="281.058097" y="170.87634" style="fill: #1f77b4; stroke: #1f77b4"/>
     <use xlink:href="#mb56ce8a73a" x="316.596126" y="170.098045" style="fill: #1f77b4; stroke: #1f77b4"/>
     <use xlink:href="#mb56ce8a73a" x="135.48436" y="219.785685" style="fill: #1f77b4; stroke: #1f77b4"/>
     <use xlink:href="#mb56ce8a73a" x="315.914491" y="217.08397" style="fill: #1f77b4; stroke: #1f77b4"/>
     <use xlink:href="#mb56ce8a73a" x="168.897826" y="219.126052" style="fill: #1f77b4; stroke: #1f77b4"/>
     <use xlink:href="#mb56ce8a73a" x="263.711231" y="212.001108" style="fill: #1f77b4; stroke: #1f77b4"/>
     <use xlink:href="#mb56ce8a73a" x="268.9946" y="193.976222" style="fill: #1f77b4; stroke: #1f77b4"/>
     <use xlink:href="#mb56ce8a73a" x="191.804169" y="243.911047" style="fill: #1f77b4; stroke: #1f77b4"/>
     <use xlink:href="#mb56ce8a73a" x="303.580735" y="149.949542" style="fill: #1f77b4; stroke: #1f77b4"/>
     <use xlink:href="#mb56ce8a73a" x="228.311599" y="203.859237" style="fill: #1f77b4; stroke: #1f77b4"/>
     <use xlink:href="#mb56ce8a73a" x="261.670607" y="53.568" style="fill: #1f77b4; stroke: #1f77b4"/>
     <use xlink:href="#mb56ce8a73a" x="256.887316" y="68.414437" style="fill: #1f77b4; stroke: #1f77b4"/>
     <use xlink:href="#mb56ce8a73a" x="216.608054" y="168.35471" style="fill: #1f77b4; stroke: #1f77b4"/>
     <use xlink:href="#mb56ce8a73a" x="152.511225" y="144.635182" style="fill: #1f77b4; stroke: #1f77b4"/>
     <use xlink:href="#mb56ce8a73a" x="134.184307" y="171.359302" style="fill: #1f77b4; stroke: #1f77b4"/>
     <use xlink:href="#mb56ce8a73a" x="189.204173" y="236.166678" style="fill: #1f77b4; stroke: #1f77b4"/>
    </g>
   </g>
   <g id="matplotlib.axis_1">
    <g id="xtick_1">
     <g id="line2d_1">
      <defs>
       <path id="ma01c776300" d="M 0 0 
L 0 3.5 
" style="stroke: #000000; stroke-width: 0.8"/>
      </defs>
      <g>
       <use xlink:href="#ma01c776300" x="89.093163" y="307.584" style="stroke: #000000; stroke-width: 0.8"/>
      </g>
     </g>
     <g id="text_1">
      <!-- −7.5 -->
      <g transform="translate(76.951757 322.182437) scale(0.1 -0.1)">
       <defs>
        <path id="DejaVuSans-2212" d="M 678 2272 
L 4684 2272 
L 4684 1741 
L 678 1741 
L 678 2272 
z
" transform="scale(0.015625)"/>
        <path id="DejaVuSans-37" d="M 525 4666 
L 3525 4666 
L 3525 4397 
L 1831 0 
L 1172 0 
L 2766 4134 
L 525 4134 
L 525 4666 
z
" transform="scale(0.015625)"/>
        <path id="DejaVuSans-2e" d="M 684 794 
L 1344 794 
L 1344 0 
L 684 0 
L 684 794 
z
" transform="scale(0.015625)"/>
        <path id="DejaVuSans-35" d="M 691 4666 
L 3169 4666 
L 3169 4134 
L 1269 4134 
L 1269 2991 
Q 1406 3038 1543 3061 
Q 1681 3084 1819 3084 
Q 2600 3084 3056 2656 
Q 3513 2228 3513 1497 
Q 3513 744 3044 326 
Q 2575 -91 1722 -91 
Q 1428 -91 1123 -41 
Q 819 9 494 109 
L 494 744 
Q 775 591 1075 516 
Q 1375 441 1709 441 
Q 2250 441 2565 725 
Q 2881 1009 2881 1497 
Q 2881 1984 2565 2268 
Q 2250 2553 1709 2553 
Q 1456 2553 1204 2497 
Q 953 2441 691 2322 
L 691 4666 
z
" transform="scale(0.015625)"/>
       </defs>
       <use xlink:href="#DejaVuSans-2212"/>
       <use xlink:href="#DejaVuSans-37" x="83.789062"/>
       <use xlink:href="#DejaVuSans-2e" x="147.412109"/>
       <use xlink:href="#DejaVuSans-35" x="179.199219"/>
      </g>
     </g>
    </g>
    <g id="xtick_2">
     <g id="line2d_2">
      <g>
       <use xlink:href="#ma01c776300" x="136.442027" y="307.584" style="stroke: #000000; stroke-width: 0.8"/>
      </g>
     </g>
     <g id="text_2">
      <!-- −5.0 -->
      <g transform="translate(124.300621 322.182437) scale(0.1 -0.1)">
       <defs>
        <path id="DejaVuSans-30" d="M 2034 4250 
Q 1547 4250 1301 3770 
Q 1056 3291 1056 2328 
Q 1056 1369 1301 889 
Q 1547 409 2034 409 
Q 2525 409 2770 889 
Q 3016 1369 3016 2328 
Q 3016 3291 2770 3770 
Q 2525 4250 2034 4250 
z
M 2034 4750 
Q 2819 4750 3233 4129 
Q 3647 3509 3647 2328 
Q 3647 1150 3233 529 
Q 2819 -91 2034 -91 
Q 1250 -91 836 529 
Q 422 1150 422 2328 
Q 422 3509 836 4129 
Q 1250 4750 2034 4750 
z
" transform="scale(0.015625)"/>
       </defs>
       <use xlink:href="#DejaVuSans-2212"/>
       <use xlink:href="#DejaVuSans-35" x="83.789062"/>
       <use xlink:href="#DejaVuSans-2e" x="147.412109"/>
       <use xlink:href="#DejaVuSans-30" x="179.199219"/>
      </g>
     </g>
    </g>
    <g id="xtick_3">
     <g id="line2d_3">
      <g>
       <use xlink:href="#ma01c776300" x="183.790891" y="307.584" style="stroke: #000000; stroke-width: 0.8"/>
      </g>
     </g>
     <g id="text_3">
      <!-- −2.5 -->
      <g transform="translate(171.649485 322.182437) scale(0.1 -0.1)">
       <defs>
        <path id="DejaVuSans-32" d="M 1228 531 
L 3431 531 
L 3431 0 
L 469 0 
L 469 531 
Q 828 903 1448 1529 
Q 2069 2156 2228 2338 
Q 2531 2678 2651 2914 
Q 2772 3150 2772 3378 
Q 2772 3750 2511 3984 
Q 2250 4219 1831 4219 
Q 1534 4219 1204 4116 
Q 875 4013 500 3803 
L 500 4441 
Q 881 4594 1212 4672 
Q 1544 4750 1819 4750 
Q 2544 4750 2975 4387 
Q 3406 4025 3406 3419 
Q 3406 3131 3298 2873 
Q 3191 2616 2906 2266 
Q 2828 2175 2409 1742 
Q 1991 1309 1228 531 
z
" transform="scale(0.015625)"/>
       </defs>
       <use xlink:href="#DejaVuSans-2212"/>
       <use xlink:href="#DejaVuSans-32" x="83.789062"/>
       <use xlink:href="#DejaVuSans-2e" x="147.412109"/>
       <use xlink:href="#DejaVuSans-35" x="179.199219"/>
      </g>
     </g>
    </g>
    <g id="xtick_4">
     <g id="line2d_4">
      <g>
       <use xlink:href="#ma01c776300" x="231.139755" y="307.584" style="stroke: #000000; stroke-width: 0.8"/>
      </g>
     </g>
     <g id="text_4">
      <!-- 0.0 -->
      <g transform="translate(223.188192 322.182437) scale(0.1 -0.1)">
       <use xlink:href="#DejaVuSans-30"/>
       <use xlink:href="#DejaVuSans-2e" x="63.623047"/>
       <use xlink:href="#DejaVuSans-30" x="95.410156"/>
      </g>
     </g>
    </g>
    <g id="xtick_5">
     <g id="line2d_5">
      <g>
       <use xlink:href="#ma01c776300" x="278.488619" y="307.584" style="stroke: #000000; stroke-width: 0.8"/>
      </g>
     </g>
     <g id="text_5">
      <!-- 2.5 -->
      <g transform="translate(270.537057 322.182437) scale(0.1 -0.1)">
       <use xlink:href="#DejaVuSans-32"/>
       <use xlink:href="#DejaVuSans-2e" x="63.623047"/>
       <use xlink:href="#DejaVuSans-35" x="95.410156"/>
      </g>
     </g>
    </g>
    <g id="xtick_6">
     <g id="line2d_6">
      <g>
       <use xlink:href="#ma01c776300" x="325.837483" y="307.584" style="stroke: #000000; stroke-width: 0.8"/>
      </g>
     </g>
     <g id="text_6">
      <!-- 5.0 -->
      <g transform="translate(317.885921 322.182437) scale(0.1 -0.1)">
       <use xlink:href="#DejaVuSans-35"/>
       <use xlink:href="#DejaVuSans-2e" x="63.623047"/>
       <use xlink:href="#DejaVuSans-30" x="95.410156"/>
      </g>
     </g>
    </g>
    <g id="xtick_7">
     <g id="line2d_7">
      <g>
       <use xlink:href="#ma01c776300" x="373.186347" y="307.584" style="stroke: #000000; stroke-width: 0.8"/>
      </g>
     </g>
     <g id="text_7">
      <!-- 7.5 -->
      <g transform="translate(365.234785 322.182437) scale(0.1 -0.1)">
       <use xlink:href="#DejaVuSans-37"/>
       <use xlink:href="#DejaVuSans-2e" x="63.623047"/>
       <use xlink:href="#DejaVuSans-35" x="95.410156"/>
      </g>
     </g>
    </g>
   </g>
   <g id="matplotlib.axis_2">
    <g id="ytick_1">
     <g id="line2d_8">
      <defs>
       <path id="m6e0243a0b4" d="M 0 0 
L -3.5 0 
" style="stroke: #000000; stroke-width: 0.8"/>
      </defs>
      <g>
       <use xlink:href="#m6e0243a0b4" x="57.6" y="281.666749" style="stroke: #000000; stroke-width: 0.8"/>
      </g>
     </g>
     <g id="text_8">
      <!-- −7.5 -->
      <g transform="translate(26.317187 285.465968) scale(0.1 -0.1)">
       <use xlink:href="#DejaVuSans-2212"/>
       <use xlink:href="#DejaVuSans-37" x="83.789062"/>
       <use xlink:href="#DejaVuSans-2e" x="147.412109"/>
       <use xlink:href="#DejaVuSans-35" x="179.199219"/>
      </g>
     </g>
    </g>
    <g id="ytick_2">
     <g id="line2d_9">
      <g>
       <use xlink:href="#m6e0243a0b4" x="57.6" y="246.757825" style="stroke: #000000; stroke-width: 0.8"/>
      </g>
     </g>
     <g id="text_9">
      <!-- −5.0 -->
      <g transform="translate(26.317187 250.557044) scale(0.1 -0.1)">
       <use xlink:href="#DejaVuSans-2212"/>
       <use xlink:href="#DejaVuSans-35" x="83.789062"/>
       <use xlink:href="#DejaVuSans-2e" x="147.412109"/>
       <use xlink:href="#DejaVuSans-30" x="179.199219"/>
      </g>
     </g>
    </g>
    <g id="ytick_3">
     <g id="line2d_10">
      <g>
       <use xlink:href="#m6e0243a0b4" x="57.6" y="211.848901" style="stroke: #000000; stroke-width: 0.8"/>
      </g>
     </g>
     <g id="text_10">
      <!-- −2.5 -->
      <g transform="translate(26.317187 215.64812) scale(0.1 -0.1)">
       <use xlink:href="#DejaVuSans-2212"/>
       <use xlink:href="#DejaVuSans-32" x="83.789062"/>
       <use xlink:href="#DejaVuSans-2e" x="147.412109"/>
       <use xlink:href="#DejaVuSans-35" x="179.199219"/>
      </g>
     </g>
    </g>
    <g id="ytick_4">
     <g id="line2d_11">
      <g>
       <use xlink:href="#m6e0243a0b4" x="57.6" y="176.939977" style="stroke: #000000; stroke-width: 0.8"/>
      </g>
     </g>
     <g id="text_11">
      <!-- 0.0 -->
      <g transform="translate(34.696875 180.739196) scale(0.1 -0.1)">
       <use xlink:href="#DejaVuSans-30"/>
       <use xlink:href="#DejaVuSans-2e" x="63.623047"/>
       <use xlink:href="#DejaVuSans-30" x="95.410156"/>
      </g>
     </g>
    </g>
    <g id="ytick_5">
     <g id="line2d_12">
      <g>
       <use xlink:href="#m6e0243a0b4" x="57.6" y="142.031053" style="stroke: #000000; stroke-width: 0.8"/>
      </g>
     </g>
     <g id="text_12">
      <!-- 2.5 -->
      <g transform="translate(34.696875 145.830271) scale(0.1 -0.1)">
       <use xlink:href="#DejaVuSans-32"/>
       <use xlink:href="#DejaVuSans-2e" x="63.623047"/>
       <use xlink:href="#DejaVuSans-35" x="95.410156"/>
      </g>
     </g>
    </g>
    <g id="ytick_6">
     <g id="line2d_13">
      <g>
       <use xlink:href="#m6e0243a0b4" x="57.6" y="107.122129" style="stroke: #000000; stroke-width: 0.8"/>
      </g>
     </g>
     <g id="text_13">
      <!-- 5.0 -->
      <g transform="translate(34.696875 110.921347) scale(0.1 -0.1)">
       <use xlink:href="#DejaVuSans-35"/>
       <use xlink:href="#DejaVuSans-2e" x="63.623047"/>
       <use xlink:href="#DejaVuSans-30" x="95.410156"/>
      </g>
     </g>
    </g>
    <g id="ytick_7">
     <g id="line2d_14">
      <g>
       <use xlink:href="#m6e0243a0b4" x="57.6" y="72.213205" style="stroke: #000000; stroke-width: 0.8"/>
      </g>
     </g>
     <g id="text_14">
      <!-- 7.5 -->
      <g transform="translate(34.696875 76.012423) scale(0.1 -0.1)">
       <use xlink:href="#DejaVuSans-37"/>
       <use xlink:href="#DejaVuSans-2e" x="63.623047"/>
       <use xlink:href="#DejaVuSans-35" x="95.410156"/>
      </g>
     </g>
    </g>
   </g>
   <g id="patch_3">
    <path d="M 57.6 307.584 
L 57.6 41.472 
" style="fill: none; stroke: #000000; stroke-width: 0.8; stroke-linejoin: miter; stroke-linecap: square"/>
   </g>
   <g id="patch_4">
    <path d="M 414.72 307.584 
L 414.72 41.472 
" style="fill: none; stroke: #000000; stroke-width: 0.8; stroke-linejoin: miter; stroke-linecap: square"/>
   </g>
   <g id="patch_5">
    <path d="M 57.6 307.584 
L 414.72 307.584 
" style="fill: none; stroke: #000000; stroke-width: 0.8; stroke-linejoin: miter; stroke-linecap: square"/>
   </g>
   <g id="patch_6">
    <path d="M 57.6 41.472 
L 414.72 41.472 
" style="fill: none; stroke: #000000; stroke-width: 0.8; stroke-linejoin: miter; stroke-linecap: square"/>
   </g>
  </g>
 </g>
 <defs>
  <clipPath id="padcc20fcdf">
   <rect x="57.6" y="41.472" width="357.12" height="266.112"/>
  </clipPath>
 </defs>
</svg>
